PathFileType	4	(X/Y/Z)	c:/Users/goper/Files/vsCode/490R/osim_files/C10/C10_Fast_06.trc
DataRate	CameraRate	NumFrames	NumMarkers	Units                	OrigDataRate	OrigDataStartFrame	OrigNumFrames
250.00	250.00	8	36	mm	250.0	1349	2157
                Frame#	Time	LPSIS			LASIS			LTH1			LTH2			LTH3			LTH4			LLFE			LMFE			LSH1			LSH2			LSH3			LSH4			LLMAL			LMMAL			LCAL			LMTP5			LTOE			LMTP1			RPSIS			RASIS			RTH1			RTH2			RTH3			RTH4			RLFE			RMFE			RSH1			RSH2			RSH3			RSH4			RLMAL			RMMAL			RCAL			RMTP1			RTOE			RMTP5		
		X1	Y1	Z1	X2	Y2	Z2	X3	Y3	Z3	X4	Y4	Z4	X5	Y5	Z5	X6	Y6	Z6	X7	Y7	Z7	X8	Y8	Z8	X9	Y9	Z9	X10	Y10	Z10	X11	Y11	Z11	X12	Y12	Z12	X13	Y13	Z13	X14	Y14	Z14	X15	Y15	Z15	X16	Y16	Z16	X17	Y17	Z17	X18	Y18	Z18	X19	Y19	Z19	X20	Y20	Z20	X21	Y21	Z21	X22	Y22	Z22	X23	Y23	Z23	X24	Y24	Z24	X25	Y25	Z25	X26	Y26	Z26	X27	Y27	Z27	X28	Y28	Z28	X29	Y29	Z29	X30	Y30	Z30	X31	Y31	Z31	X32	Y32	Z32	X33	Y33	Z33	X34	Y34	Z34	X35	Y35	Z35	X36	Y36	Z36

1349	5.39200	0.00000	0.00000	0.00000	-3398.79541	972.43695	401.29950	-3307.41455	754.64233	443.03253	0.00000	0.00000	0.00000	0.00000	0.00000	0.00000	0.00000	0.00000	0.00000	0.00000	0.00000	0.00000	-3276.02515	440.22461	285.66592	0.00000	0.00000	0.00000	-3132.41724	404.97729	391.09180	0.00000	0.00000	0.00000	0.00000	0.00000	0.00000	-2973.66846	137.33012	343.98892	0.00000	0.00000	0.00000	-2894.45996	113.92385	305.35468	0.00000	0.00000	0.00000	-3263.19238	888.36847	52.29817	0.00000	0.00000	0.00000	0.00000	0.00000	0.00000	0.00000	0.00000	0.00000	0.00000	0.00000	0.00000	0.00000	0.00000	0.00000	0.00000	0.00000	0.00000	0.00000	0.00000	0.00000	0.00000	0.00000	0.00000	-3535.21509	363.81668	85.92920	0.00000	0.00000	0.00000	0.00000	0.00000	0.00000	0.00000	0.00000	0.00000	0.00000	0.00000	0.00000	-3661.12573	93.10781	124.08105	0.00000	0.00000	0.00000	0.00000	0.00000	0.00000	0.00000	0.00000	0.00000	-3828.02661	99.81988	163.89662	-3786.79346	69.05846	98.99110
1350	5.39600	0.00000	0.00000	0.00000	-3406.25342	972.09131	400.61957	-3314.72437	754.02130	442.19885	0.00000	0.00000	0.00000	0.00000	0.00000	0.00000	0.00000	0.00000	0.00000	0.00000	0.00000	0.00000	-3278.96680	441.01297	284.17572	0.00000	0.00000	0.00000	-3139.92725	406.24329	391.33109	0.00000	0.00000	0.00000	0.00000	0.00000	0.00000	-2976.88794	139.30429	344.31708	0.00000	0.00000	0.00000	-2896.80371	117.72606	305.95102	0.00000	0.00000	0.00000	-3270.18701	888.22241	51.49007	0.00000	0.00000	0.00000	0.00000	0.00000	0.00000	0.00000	0.00000	0.00000	0.00000	0.00000	0.00000	0.00000	0.00000	0.00000	0.00000	0.00000	0.00000	0.00000	0.00000	0.00000	0.00000	0.00000	0.00000	-3541.18530	365.33762	85.83810	0.00000	0.00000	0.00000	0.00000	0.00000	0.00000	0.00000	0.00000	0.00000	0.00000	0.00000	0.00000	-3661.73877	92.15844	122.92676	0.00000	0.00000	0.00000	0.00000	0.00000	0.00000	0.00000	0.00000	0.00000	0.00000	0.00000	0.00000	-3788.57104	65.33395	99.04086
1351	5.40000	0.00000	0.00000	0.00000	-3413.47827	971.61829	399.95728	-3322.06250	753.43927	441.31415	0.00000	0.00000	0.00000	0.00000	0.00000	0.00000	0.00000	0.00000	0.00000	0.00000	0.00000	0.00000	-3282.00146	442.05295	282.59283	0.00000	0.00000	0.00000	-3146.18408	406.48395	391.17484	0.00000	0.00000	0.00000	0.00000	0.00000	0.00000	-2979.29004	141.85399	345.22910	0.00000	0.00000	0.00000	-2899.31714	121.65855	306.50052	0.00000	0.00000	0.00000	-3277.14844	888.23547	50.69770	0.00000	0.00000	0.00000	0.00000	0.00000	0.00000	0.00000	0.00000	0.00000	0.00000	0.00000	0.00000	0.00000	0.00000	0.00000	0.00000	0.00000	0.00000	0.00000	0.00000	0.00000	0.00000	0.00000	0.00000	-3547.61646	366.98044	85.32583	0.00000	0.00000	0.00000	0.00000	0.00000	0.00000	0.00000	0.00000	0.00000	0.00000	0.00000	0.00000	-3662.65479	91.70604	122.76332	0.00000	0.00000	0.00000	0.00000	0.00000	0.00000	0.00000	0.00000	0.00000	0.00000	0.00000	0.00000	-3790.33350	61.64198	99.16169
1352	5.40400	0.00000	0.00000	0.00000	-3420.82837	971.26141	399.24655	-3329.13745	752.81439	440.29318	0.00000	0.00000	0.00000	0.00000	0.00000	0.00000	0.00000	0.00000	0.00000	0.00000	0.00000	0.00000	-3285.03955	443.13544	280.94775	0.00000	0.00000	0.00000	-3153.43555	407.27289	391.20331	0.00000	0.00000	0.00000	0.00000	0.00000	0.00000	-2982.91577	143.89243	345.52072	0.00000	0.00000	0.00000	-2902.19702	125.66915	307.01382	0.00000	0.00000	0.00000	-3283.98730	888.34650	49.87305	0.00000	0.00000	0.00000	0.00000	0.00000	0.00000	0.00000	0.00000	0.00000	0.00000	0.00000	0.00000	0.00000	0.00000	0.00000	0.00000	0.00000	0.00000	0.00000	0.00000	0.00000	0.00000	0.00000	0.00000	0.00000	0.00000	0.00000	0.00000	0.00000	0.00000	0.00000	0.00000	0.00000	0.00000	0.00000	0.00000	0.00000	0.00000	0.00000	-3663.53198	91.47762	122.62050	0.00000	0.00000	0.00000	0.00000	0.00000	0.00000	0.00000	0.00000	0.00000	0.00000	0.00000	0.00000	-3791.93018	58.30128	99.35207
1353	5.40800	0.00000	0.00000	0.00000	-3428.03296	970.86273	398.41708	-3336.12695	752.24188	439.42392	0.00000	0.00000	0.00000	0.00000	0.00000	0.00000	0.00000	0.00000	0.00000	0.00000	0.00000	0.00000	-3288.17773	444.32074	279.23340	0.00000	0.00000	0.00000	-3160.96021	407.98734	391.13171	0.00000	0.00000	0.00000	0.00000	0.00000	0.00000	-2985.66113	146.46896	346.42151	0.00000	0.00000	0.00000	0.00000	0.00000	0.00000	0.00000	0.00000	0.00000	-3290.61865	888.50922	49.05434	0.00000	0.00000	0.00000	0.00000	0.00000	0.00000	0.00000	0.00000	0.00000	0.00000	0.00000	0.00000	0.00000	0.00000	0.00000	0.00000	0.00000	0.00000	0.00000	0.00000	0.00000	0.00000	0.00000	0.00000	0.00000	0.00000	0.00000	0.00000	0.00000	0.00000	0.00000	0.00000	0.00000	0.00000	0.00000	0.00000	0.00000	0.00000	0.00000	-3665.04858	91.31059	122.35978	0.00000	0.00000	0.00000	0.00000	0.00000	0.00000	0.00000	0.00000	0.00000	0.00000	0.00000	0.00000	-3793.35352	55.28661	99.45850
1354	5.41200	0.00000	0.00000	0.00000	-3435.23413	970.38538	397.64700	-3342.84375	751.62164	438.60757	0.00000	0.00000	0.00000	0.00000	0.00000	0.00000	0.00000	0.00000	0.00000	0.00000	0.00000	0.00000	0.00000	0.00000	0.00000	0.00000	0.00000	0.00000	-3168.74316	408.70529	391.07263	0.00000	0.00000	0.00000	0.00000	0.00000	0.00000	-2989.30225	148.85863	347.00534	0.00000	0.00000	0.00000	0.00000	0.00000	0.00000	0.00000	0.00000	0.00000	-3297.25073	888.79260	48.31668	0.00000	0.00000	0.00000	0.00000	0.00000	0.00000	0.00000	0.00000	0.00000	0.00000	0.00000	0.00000	0.00000	0.00000	0.00000	0.00000	0.00000	0.00000	0.00000	0.00000	0.00000	0.00000	0.00000	0.00000	0.00000	0.00000	0.00000	0.00000	0.00000	0.00000	0.00000	0.00000	0.00000	0.00000	0.00000	0.00000	0.00000	0.00000	0.00000	-3667.03027	91.10310	121.79260	0.00000	0.00000	0.00000	0.00000	0.00000	0.00000	0.00000	0.00000	0.00000	0.00000	0.00000	0.00000	-3794.51831	52.60771	99.54948
1355	5.41600	0.00000	0.00000	0.00000	-3442.41528	970.01678	396.66278	-3347.07153	751.49438	438.34698	0.00000	0.00000	0.00000	0.00000	0.00000	0.00000	0.00000	0.00000	0.00000	0.00000	0.00000	0.00000	0.00000	0.00000	0.00000	0.00000	0.00000	0.00000	-3176.88599	409.43756	390.96368	0.00000	0.00000	0.00000	0.00000	0.00000	0.00000	-2993.60303	150.92250	347.23825	0.00000	0.00000	0.00000	0.00000	0.00000	0.00000	0.00000	0.00000	0.00000	0.00000	0.00000	0.00000	0.00000	0.00000	0.00000	0.00000	0.00000	0.00000	0.00000	0.00000	0.00000	0.00000	0.00000	0.00000	0.00000	0.00000	0.00000	0.00000	0.00000	0.00000	0.00000	0.00000	0.00000	0.00000	0.00000	0.00000	0.00000	0.00000	0.00000	0.00000	0.00000	0.00000	0.00000	0.00000	0.00000	0.00000	0.00000	0.00000	0.00000	0.00000	0.00000	-3669.05762	90.98692	121.35403	0.00000	0.00000	0.00000	0.00000	0.00000	0.00000	0.00000	0.00000	0.00000	0.00000	0.00000	0.00000	-3795.63623	50.17773	99.63509
1356	5.42000	0.00000	0.00000	0.00000	-3449.78149	969.66479	395.81122	0.00000	0.00000	0.00000	0.00000	0.00000	0.00000	0.00000	0.00000	0.00000	0.00000	0.00000	0.00000	0.00000	0.00000	0.00000	0.00000	0.00000	0.00000	0.00000	0.00000	0.00000	-3185.34839	410.10693	390.85596	0.00000	0.00000	0.00000	0.00000	0.00000	0.00000	-2997.68774	153.32057	347.82202	0.00000	0.00000	0.00000	0.00000	0.00000	0.00000	0.00000	0.00000	0.00000	0.00000	0.00000	0.00000	0.00000	0.00000	0.00000	0.00000	0.00000	0.00000	0.00000	0.00000	0.00000	0.00000	0.00000	0.00000	0.00000	0.00000	0.00000	0.00000	0.00000	0.00000	0.00000	0.00000	0.00000	0.00000	0.00000	0.00000	0.00000	0.00000	0.00000	0.00000	0.00000	0.00000	0.00000	0.00000	0.00000	0.00000	0.00000	0.00000	0.00000	0.00000	0.00000	-3670.63794	90.90156	120.82914	0.00000	0.00000	0.00000	0.00000	0.00000	0.00000	0.00000	0.00000	0.00000	0.00000	0.00000	0.00000	-3796.61621	47.77082	99.60396
